<?xml version="1.0" encoding="utf-8"?><svg xmlns="http://www.w3.org/2000/svg" xmlns:xlink="http://www.w3.org/1999/xlink"><symbol viewBox="0 0 64 64" id="fav"><path d="M32.1 56.2c-10-8.7-24.1-20.9-25.2-22-1.5-1.5-2.6-3.2-3.4-5-.8-1.9-1.2-4-1.2-6.2 0-2.1.4-4.2 1.2-6.2.8-1.9 2-3.6 3.4-5 1.5-1.5 3.2-2.6 5.1-3.4 1.9-.8 4-1.2 6.2-1.2 2.1 0 4.1.5 6 1.5 1.9 1 3.6 2.3 5.1 4l.7.8c.2.2.3.4.5.7l1.7 2.3 1.7-2.3c.2-.3.9-1.1 1.2-1.5 1.5-1.7 3.2-3.1 5.1-4 1.9-1 4-1.5 6-1.5 2.1 0 4.2.4 6.2 1.2 1.9.8 3.6 1.9 5 3.4 1.5 1.5 2.6 3.2 3.4 5 .8 1.9 1.2 4 1.2 6.2 0 2.1-.4 4.2-1.2 6.2-.8 1.9-2 3.6-3.4 5-1.2 1.1-15.3 13.3-25.3 22z"/><path d="M46.1 9.3c1.8 0 3.6.4 5.3 1.1 1.6.7 3.1 1.7 4.4 3 1.3 1.3 2.3 2.7 3 4.4.7 1.7 1.1 3.5 1.1 5.3 0 1.8-.4 3.7-1.1 5.3-.8 1.6-1.8 3-3 4.3-1.2 1.2-14.1 12.4-23.7 20.7-9.6-8.3-22.7-19.6-23.8-20.7C7 31.4 6 30 5.3 28.3c-.7-1.7-1.1-3.5-1.1-5.3 0-1.8.4-3.7 1.1-5.3.7-1.7 1.7-3.1 3-4.4 1.3-1.3 2.7-2.3 4.4-3 1.7-.7 3.5-1.1 5.3-1.1 1.7 0 3.5.4 5 1.3 1.7.9 3.1 2 4.4 3.5l.6.7c.1.2.3.4.4.6l3.4 4.6 3.5-4.6c.3-.4.8-1.1 1.1-1.4 1.3-1.5 2.8-2.7 4.4-3.5 1.8-.7 3.5-1.1 5.3-1.1m0-4.3c-2.5 0-4.8.6-7 1.7s-4.1 2.7-5.7 4.5c-.4.5-1.3 1.6-1.3 1.6-.7-.9-1.3-1.6-1.3-1.6-1.6-1.9-3.6-3.4-5.7-4.5C22.9 5.6 20.5 5 18 5s-4.8.5-7 1.4-4.1 2.2-5.7 3.9c-1.6 1.6-2.9 3.6-3.9 5.7C.6 18.1 0 20.5 0 23s.5 4.8 1.4 7c.9 2.2 2.2 4.1 3.9 5.7C6.9 37.3 32.1 59 32.1 59s25.1-21.7 26.7-23.3c1.6-1.6 2.9-3.6 3.9-5.7.9-2.1 1.4-4.5 1.4-7s-.5-4.8-1.4-7-2.2-4.1-3.9-5.7-3.6-2.9-5.7-3.9c-2.2-.9-4.6-1.4-7-1.4z"/></symbol></svg>